<?xml version="1.0" encoding="UTF-8" standalone="no"?>
<!-- Created with Inkscape (http://www.inkscape.org/) -->

<svg
   xmlns:dc="http://purl.org/dc/elements/1.1/"
   xmlns:cc="http://creativecommons.org/ns#"
   xmlns:rdf="http://www.w3.org/1999/02/22-rdf-syntax-ns#"
   xmlns:svg="http://www.w3.org/2000/svg"
   xmlns="http://www.w3.org/2000/svg"
   xmlns:sodipodi="http://sodipodi.sourceforge.net/DTD/sodipodi-0.dtd"
   xmlns:inkscape="http://www.inkscape.org/namespaces/inkscape"
   width="25.062748mm"
   height="25.193058mm"
   viewBox="0 0 88.805004 89.266744"
   id="svg4591"
   version="1.1"
   inkscape:version="0.91 r13725"
   sodipodi:docname="30 bold.svg">
  <defs
     id="defs4593" />
  <sodipodi:namedview
     id="base"
     pagecolor="#ffffff"
     bordercolor="#666666"
     borderopacity="1.0"
     inkscape:pageopacity="0.0"
     inkscape:pageshadow="2"
     inkscape:zoom="6.1305898"
     inkscape:cx="19.299016"
     inkscape:cy="48.772213"
     inkscape:document-units="px"
     inkscape:current-layer="layer1"
     showgrid="false"
     fit-margin-top="0"
     fit-margin-left="0"
     fit-margin-right="0"
     fit-margin-bottom="0"
     inkscape:window-width="1440"
     inkscape:window-height="787"
     inkscape:window-x="0"
     inkscape:window-y="0"
     inkscape:window-maximized="1" />
  <metadata
     id="metadata4596">
    <rdf:RDF>
      <cc:Work
         rdf:about="">
        <dc:format>image/svg+xml</dc:format>
        <dc:type
           rdf:resource="http://purl.org/dc/dcmitype/StillImage" />
        <dc:title></dc:title>
      </cc:Work>
    </rdf:RDF>
  </metadata>
  <g
     inkscape:label="Layer 1"
     inkscape:groupmode="layer"
     id="layer1"
     transform="translate(-44.38464,-916.40087)">
    <path
       style="fill:#231f20;fill-opacity:1"
       d="M 44.402344 0 C 19.879799 8.9377204e-05 0.0003071266 19.982765 0 44.632812 C -0.00076646723 69.283623 19.87904 89.267489 44.402344 89.267578 C 68.925647 89.267489 88.805453 69.283623 88.804688 44.632812 C 88.804381 19.982765 68.924888 8.9377204e-05 44.402344 0 z M 27.451172 20.15625 C 31.787068 20.15625 35.185646 21.36745 37.644531 23.789062 C 40.103416 26.188858 41.332031 29.503961 41.332031 33.736328 C 41.332031 35.917961 40.760211 37.925241 39.615234 39.757812 C 38.470257 41.590384 36.967616 42.996781 35.109375 43.978516 C 37.418099 44.938434 39.135512 46.378991 40.261719 48.298828 C 41.406696 50.218665 41.980469 52.48751 41.980469 55.105469 C 41.980469 59.337836 40.647778 62.730693 37.982422 65.283203 C 35.335836 67.835713 31.824609 69.111328 27.451172 69.111328 C 23.359287 69.111328 20.009437 67.856534 17.400391 65.347656 C 14.810115 62.838779 13.515625 59.523676 13.515625 55.400391 L 21.652344 55.400391 C 21.652344 57.189329 22.224164 58.650707 23.369141 59.785156 C 24.532888 60.919605 25.959127 61.486328 27.648438 61.486328 C 29.581759 61.486328 31.092974 60.898785 32.181641 59.720703 C 33.289077 58.520805 33.84375 56.938079 33.84375 54.974609 C 33.84375 50.21865 31.590765 47.839844 27.085938 47.839844 L 22.777344 47.839844 L 22.777344 40.445312 L 27.113281 40.445312 C 29.177994 40.445312 30.708309 39.844429 31.703125 38.644531 C 32.697941 37.444633 33.195313 35.852473 33.195312 33.867188 C 33.195312 31.947351 32.697941 30.453766 31.703125 29.384766 C 30.727079 28.315766 29.375288 27.78125 27.648438 27.78125 C 26.090518 27.78125 24.787455 28.281605 23.736328 29.285156 C 22.685202 30.266891 22.158203 31.555846 22.158203 33.148438 L 14.021484 33.148438 C 14.021484 30.661376 14.595257 28.436126 15.740234 26.472656 C 16.903981 24.48737 18.517319 22.936851 20.582031 21.824219 C 22.665514 20.711586 24.954747 20.15625 27.451172 20.15625 z M 61.408203 20.15625 C 65.87549 20.15625 69.293169 21.867805 71.658203 25.292969 C 74.023238 28.696316 75.232752 33.594144 75.289062 39.986328 L 75.289062 48.757812 C 75.289062 55.346343 74.115796 60.384388 71.769531 63.875 C 69.423267 67.365612 65.988441 69.111328 61.464844 69.111328 C 56.997556 69.111328 53.581831 67.399773 51.216797 63.974609 C 48.851762 60.549446 47.640295 55.640231 47.583984 49.248047 L 47.583984 40.478516 C 47.583984 33.824536 48.767778 28.773152 51.132812 25.326172 C 53.516617 21.879192 56.940916 20.15625 61.408203 20.15625 z M 61.408203 27.8125 C 59.493651 27.8125 58.077939 28.674948 57.158203 30.398438 C 56.257238 32.100111 55.778967 34.772689 55.722656 38.416016 L 55.722656 50 C 55.722656 53.883306 56.1713 56.773855 57.072266 58.671875 C 57.992001 60.548079 59.456441 61.486328 61.464844 61.486328 C 63.454476 61.486328 64.891242 60.58224 65.773438 58.771484 C 66.655633 56.960729 67.114804 54.189576 67.152344 50.458984 L 67.152344 39.136719 C 67.152344 35.187964 66.682646 32.318236 65.744141 30.529297 C 64.824405 28.718542 63.379065 27.8125 61.408203 27.8125 z "
       transform="translate(44.384629,916.40087)"
       id="path4633" />
    <text
       xml:space="preserve"
       style="font-style:normal;font-weight:normal;font-size:40px;line-height:125%;font-family:sans-serif;letter-spacing:0px;word-spacing:0px;fill:#000000;fill-opacity:1;stroke:none;stroke-width:1px;stroke-linecap:butt;stroke-linejoin:miter;stroke-opacity:1"
       x="27.094286"
       y="938.953"
       id="text3401"
       sodipodi:linespacing="125%"><tspan
         sodipodi:role="line"
         id="tspan3403"
         x="27.094286"
         y="938.953" /></text>
  </g>
</svg>
