<?xml version="1.0" encoding="UTF-8" standalone="no"?>
<!-- Created with Inkscape (http://www.inkscape.org/) -->

<svg
   xmlns:dc="http://purl.org/dc/elements/1.1/"
   xmlns:cc="http://creativecommons.org/ns#"
   xmlns:rdf="http://www.w3.org/1999/02/22-rdf-syntax-ns#"
   xmlns:svg="http://www.w3.org/2000/svg"
   xmlns="http://www.w3.org/2000/svg"
   xmlns:sodipodi="http://sodipodi.sourceforge.net/DTD/sodipodi-0.dtd"
   xmlns:inkscape="http://www.inkscape.org/namespaces/inkscape"
   width="25.410231mm"
   height="25.410231mm"
   viewBox="0 0 90.036242 90.036253"
   id="svg4591"
   version="1.1"
   inkscape:version="0.91 r13725"
   sodipodi:docname="rdio.svg">
  <defs
     id="defs4593" />
  <sodipodi:namedview
     id="base"
     pagecolor="#ffffff"
     bordercolor="#666666"
     borderopacity="1.0"
     inkscape:pageopacity="0.0"
     inkscape:pageshadow="2"
     inkscape:zoom="6.1305898"
     inkscape:cx="79.464646"
     inkscape:cy="41.550852"
     inkscape:document-units="px"
     inkscape:current-layer="layer1"
     showgrid="false"
     inkscape:window-width="1440"
     inkscape:window-height="787"
     inkscape:window-x="0"
     inkscape:window-y="0"
     inkscape:window-maximized="1"
     fit-margin-top="0"
     fit-margin-left="0"
     fit-margin-right="0"
     fit-margin-bottom="0" />
  <metadata
     id="metadata4596">
    <rdf:RDF>
      <cc:Work
         rdf:about="">
        <dc:format>image/svg+xml</dc:format>
        <dc:type
           rdf:resource="http://purl.org/dc/dcmitype/StillImage" />
        <dc:title></dc:title>
      </cc:Work>
    </rdf:RDF>
  </metadata>
  <g
     inkscape:label="Layer 1"
     inkscape:groupmode="layer"
     id="layer1"
     transform="translate(-43.553318,-915.91551)">
    <g
       transform="matrix(1.25,0,0,-1.25,113.98956,957.54551)"
       id="g3373">
      <path
         inkscape:connector-curvature="0"
         id="path3375"
         style="fill:#231f20;fill-opacity:1;fill-rule:nonzero;stroke:none"
         d="m 0,0 c 0.138,-0.952 0.21,-1.923 0.21,-2.911 0,-11.606 -9.809,-21.015 -21.909,-21.015 -12.1,0 -21.908,9.409 -21.908,21.015 0,11.608 9.808,21.016 21.908,21.016 2.374,0 4.657,-0.366 6.798,-1.035 l 0.003,-12.7 c 0,0 -6.527,3.571 -12.364,-0.618 -5.839,-4.19 -4.74,-8.585 -4.74,-8.585 0,0 0.275,-6.937 8.511,-6.937 9.209,0 11.819,8.379 11.819,8.379 l 0,19.164 c 1.778,-0.879 3.428,-1.976 5.014,-3.213 3.916,-2.421 7.984,-3.983 12.637,-3.863 0,0 0.893,0.189 0.893,-1.58 C 6.872,6.155 6.528,5.056 5.567,4.026 5.567,4.026 3.737,1.293 0,0 m -20.335,33.304 c -19.891,0 -36.014,-16.124 -36.014,-36.014 0,-19.891 16.123,-36.015 36.014,-36.015 19.891,0 36.015,16.124 36.015,36.015 0,19.89 -16.124,36.014 -36.015,36.014" />
    </g>
  </g>
</svg>
